<svg width="85" height="16" viewBox="0 0 85 16" fill="none" xmlns="http://www.w3.org/2000/svg">
<path d="M0.4 0.999999H4.36V11.86H11.04V15H0.4V0.999999ZM23.847 11.94V15H12.607V0.999999H23.587V4.06H16.527V6.42H22.747V9.38H16.527V11.94H23.847ZM35.405 7.7H38.905V13.5C38.105 14.0733 37.185 14.5133 36.145 14.82C35.105 15.1267 34.065 15.28 33.025 15.28C31.5583 15.28 30.2383 14.9733 29.065 14.36C27.8917 13.7333 26.9717 12.8667 26.305 11.76C25.6383 10.6533 25.305 9.4 25.305 8C25.305 6.6 25.6383 5.34667 26.305 4.24C26.9717 3.13333 27.8983 2.27333 29.085 1.66C30.2717 1.03333 31.6117 0.719999 33.105 0.719999C34.4117 0.719999 35.585 0.939999 36.625 1.38C37.665 1.82 38.5317 2.45333 39.225 3.28L36.705 5.56C35.7583 4.52 34.625 4 33.305 4C32.105 4 31.1383 4.36667 30.405 5.1C29.6717 5.82 29.305 6.78667 29.305 8C29.305 8.77333 29.4717 9.46667 29.805 10.08C30.1383 10.68 30.605 11.1533 31.205 11.5C31.805 11.8333 32.4917 12 33.265 12C34.025 12 34.7383 11.8467 35.405 11.54V7.7ZM47.8756 15.28C45.7956 15.28 44.1756 14.7133 43.0156 13.58C41.869 12.4467 41.2956 10.84 41.2956 8.76V0.999999H45.2556V8.64C45.2556 10.88 46.1423 12 47.9156 12C49.6756 12 50.5556 10.88 50.5556 8.64V0.999999H54.4556V8.76C54.4556 10.84 53.8756 12.4467 52.7156 13.58C51.569 14.7133 49.9556 15.28 47.8756 15.28ZM63.2583 11.28H61.0983V15H57.1383V0.999999H63.5383C64.8049 0.999999 65.9049 1.21333 66.8383 1.64C67.7716 2.05333 68.4916 2.65333 68.9983 3.44C69.5049 4.21333 69.7583 5.12667 69.7583 6.18C69.7583 7.19333 69.5183 8.08 69.0383 8.84C68.5716 9.58667 67.8983 10.1733 67.0183 10.6L70.0383 15H65.7983L63.2583 11.28ZM65.7583 6.18C65.7583 5.52667 65.5516 5.02 65.1383 4.66C64.7249 4.3 64.1116 4.12 63.2983 4.12H61.0983V8.22H63.2983C64.1116 8.22 64.7249 8.04667 65.1383 7.7C65.5516 7.34 65.7583 6.83333 65.7583 6.18ZM79.2477 9.98V15H75.2877V9.92L69.9477 0.999999H74.1277L77.4477 6.56L80.7677 0.999999H84.6077L79.2477 9.98Z" fill="white"/>
</svg>
