<svg width="46" height="44" viewBox="0 0 46 44" fill="none" xmlns="http://www.w3.org/2000/svg">
<path d="M36.8747 22.7101C36.8747 22.7101 31.2033 22.7101 27.9625 22.7101C25.2212 22.7101 22.8987 25.2487 22.8987 28.1884C22.8987 30.8261 25.2212 33.2609 27.9625 33.2609M36.8747 22.7101C36.8747 22.7101 44.4279 15.3096 44.9767 8.91304C45.2889 5.27446 42.4562 1 36.8747 1C30.6322 1 28.221 5.27446 28.5701 8.91304C29.184 15.3096 36.8747 22.7101 36.8747 22.7101ZM27.9625 33.2609C31.6084 33.2609 36.8747 33.2609 36.8747 33.2609M27.9625 33.2609H36.8747M36.8747 33.2609C39.616 33.2609 41.9384 34.9878 41.9385 37.9275C41.9385 40.5652 39.616 43 36.8747 43H9.12531M9.12531 43L18.0375 43M9.12531 43C9.12531 43 1.57213 35.5995 1.02329 29.2029C0.711092 25.5643 3.54375 21.2899 9.1253 21.2899C15.3678 21.2899 17.779 25.5643 17.4299 29.2029C16.816 35.5995 9.12531 43 9.12531 43ZM36.6721 7.49275C37.1448 7.49275 38.09 7.77681 38.09 8.91304C38.09 10.0493 37.0772 10.5362 36.6721 10.5362C36.267 10.5362 35.2543 10.0493 35.2543 8.91304C35.2543 7.77681 36.1995 7.49275 36.6721 7.49275ZM9.32785 27.7826C8.85524 27.7826 7.91 28.0667 7.91 29.2029C7.91 30.3391 8.92275 30.8261 9.32785 30.8261C9.73295 30.8261 10.7457 30.3391 10.7457 29.2029C10.7457 28.0667 9.80047 27.7826 9.32785 27.7826Z" stroke="#317CCD" stroke-width="2"/>
</svg>
