<svg width="44" height="44" viewBox="0 0 44 44" fill="none" xmlns="http://www.w3.org/2000/svg">
<path d="M34.8425 43H22.5H10.1575M34.8425 43C36.2717 43 39 42.7009 39 39.5104V24.9288C39 21.1484 39 12.7899 39 9.59942C39 6.40892 36.2717 6.10981 34.8425 6.10981H22.5H18.4075M34.8425 43H44H10.1575M10.1575 43C8.72835 43 6 42.7009 6 39.5104V24.9288V9.59942C6 6.40892 8.72835 6.10981 10.1575 6.10981H15.065M10.1575 43H0M18.375 25L20.8819 28.4095L28.7657 20.5M15.065 6.10981V8.72702C15.065 9.22554 15.0909 10.0979 16.2343 10.0979C17.3776 10.0979 20.6378 10.0979 22.5 10.0979H28.7657C29.9091 10.0979 29.935 9.22554 29.935 8.72702V6.10981M15.065 6.10981H18.4075M18.4075 6.10981V4.73889C18.4075 3.1187 19.122 1.12463 22.5 1C25.878 1 26.5925 2.99406 26.5925 4.61425V5.98517" stroke="#317CCD" stroke-width="2"/>
</svg>
