<svg width="46" height="44" viewBox="0 0 46 44" fill="none" xmlns="http://www.w3.org/2000/svg">
<path d="M23.0695 10V14.025M23.0695 14.025C24.674 14.025 27.6361 14.255 28.5 15.75M23.0695 14.025C20.3543 14.025 17.639 14.83 17.639 17.475C17.639 21.385 22.9722 21.677 25.2911 22.075C29.981 22.88 29.2405 28.0509 26.155 28.975C25.2705 29.2399 24.0569 29.2773 23.0695 29.2773M23.0695 29.2773C21.4651 29.2773 18.7467 28.408 18.1327 27.595M23.0695 29.2773V33M23 1C32.3649 1 45 5.32538 45 22.0688C45 38.4959 31.473 43.11 23 42.998C14.527 42.886 1 38.4959 1 22.0688C1 6.02302 14.2297 1 23 1Z" stroke="#317CCD" stroke-width="2"/>
</svg>
